<svg width="36" height="36" viewBox="0 0 36 36" fill="none" xmlns="http://www.w3.org/2000/svg">
<g clip-path="url(#clip0_1228_6356)">
<path d="M12.5406 1.18488C8.94363 2.4327 5.84162 4.8011 3.69019 7.9422C1.53876 11.0833 0.451312 14.8315 0.58758 18.6363C0.723849 22.4412 2.07665 26.102 4.44727 29.0811C6.8179 32.0603 10.0814 34.2007 13.7584 35.188C16.7394 35.9572 19.8627 35.991 22.8596 35.2864C25.5746 34.6766 28.0847 33.3722 30.144 31.5008C32.2874 29.4937 33.8431 26.9403 34.644 24.1152C35.5145 21.043 35.6695 17.8122 35.0968 14.6708H18.3568V21.6149H28.0515C27.8578 22.7224 27.4426 23.7795 26.8308 24.7228C26.219 25.6661 25.4231 26.4763 24.4909 27.1049C23.3071 27.888 21.9726 28.4149 20.5731 28.6518C19.1695 28.9127 17.7298 28.9127 16.3262 28.6518C14.9036 28.3576 13.5579 27.7705 12.3746 26.9277C10.4738 25.5822 9.04655 23.6706 8.29652 21.4658C7.53382 19.2197 7.53382 16.7847 8.29652 14.5386C8.83041 12.9642 9.71299 11.5308 10.8784 10.3452C12.2121 8.96354 13.9005 7.97593 15.7585 7.49072C17.6165 7.00551 19.5723 7.04144 21.4112 7.59457C22.8477 8.03554 24.1614 8.80602 25.2475 9.84457C26.3406 8.75707 27.4318 7.66676 28.5212 6.57363C29.0837 5.98582 29.6968 5.42613 30.2509 4.82426C28.5931 3.28153 26.6472 2.0811 24.5246 1.29176C20.6594 -0.11171 16.4302 -0.149427 12.5406 1.18488Z" fill="white"/>
<path d="M12.5401 1.18429C16.4294 -0.15092 20.6586 -0.114196 24.5241 1.28836C26.6471 2.08307 28.5921 3.28928 30.2476 4.83773C29.6851 5.43961 29.0916 6.00211 28.5179 6.58711C27.4266 7.67648 26.3363 8.76211 25.247 9.84398C24.1609 8.80543 22.8472 8.03496 21.4107 7.59398C19.5724 7.03891 17.6167 7.0009 15.7582 7.48413C13.8997 7.96736 12.2102 8.95316 10.8751 10.3334C9.70967 11.5189 8.82709 12.9524 8.2932 14.5268L2.46289 10.0127C4.54979 5.87431 8.16312 2.70874 12.5401 1.18429Z" fill="#E33629"/>
<path d="M0.917101 14.4836C1.23047 12.9305 1.75074 11.4265 2.46398 10.0117L8.29429 14.537C7.53158 16.7831 7.53158 19.2181 8.29429 21.4642C6.35179 22.9642 4.40835 24.4717 2.46398 25.9867C0.678463 22.4326 0.133912 18.3831 0.917101 14.4836Z" fill="#F8BD00"/>
<path d="M18.3567 14.668H35.0967C35.6693 17.8093 35.5144 21.0402 34.6439 24.1123C33.843 26.9374 32.2873 29.4908 30.1439 31.498C28.2623 30.0298 26.3723 28.573 24.4908 27.1048C25.4236 26.4756 26.2198 25.6645 26.8317 24.7202C27.4435 23.7759 27.8584 22.7177 28.0514 21.6092H18.3567C18.3539 19.2973 18.3567 16.9827 18.3567 14.668Z" fill="#587DBD"/>
<path d="M2.46094 25.9873C4.40531 24.4873 6.34875 22.9798 8.29125 21.4648C9.04277 23.6704 10.4721 25.582 12.375 26.9267C13.5619 27.7656 14.9106 28.348 16.335 28.6367C17.7386 28.8977 19.1783 28.8977 20.5819 28.6367C21.9814 28.3998 23.3159 27.8729 24.4997 27.0898C26.3813 28.558 28.2712 30.0148 30.1528 31.483C28.0938 33.3553 25.5837 34.6608 22.8684 35.2714C19.8715 35.976 16.7482 35.9422 13.7672 35.173C11.4095 34.5435 9.20721 33.4337 7.29844 31.9133C5.27811 30.3093 3.628 28.2879 2.46094 25.9873Z" fill="#319F43"/>
</g>
<defs>
<clipPath id="clip0_1228_6356">
<rect width="36" height="36" fill="white"/>
</clipPath>
</defs>
</svg>
