<svg width="42" height="49" viewBox="0 0 42 49" fill="none" xmlns="http://www.w3.org/2000/svg">
<path d="M41.4314 0H42V41.4314H0C0 30.4431 4.36508 19.9049 12.135 12.135C19.9049 4.36508 30.4431 0 41.4314 0V0Z" fill="#80E4AD"/>
<path d="M0 0H0.568615C6.00946 0 11.397 1.07165 16.4237 3.15378C21.4504 5.2359 26.0178 8.28771 29.865 12.135C33.7123 15.9822 36.7641 20.5496 38.8462 25.5763C40.9283 30.603 42 35.9905 42 41.4314H0V0Z" fill="#B9ECCF"/>
<path d="M0 0.759766C22.9385 0.759766 30.933 25.7611 30.933 48.4605L0 41.8632V0.759766Z" fill="#33D37B"/>
</svg>
